<svg width="74" height="74" viewBox="0 0 74 74" fill="none" xmlns="http://www.w3.org/2000/svg">
<rect width="74" height="74" rx="15" fill="white"/>
<path d="M51 15H23C18.5817 15 15 18.5817 15 23V55C15 59.4183 18.5817 63 23 63H51C55.4183 63 59 59.4183 59 55V23C59 18.5817 55.4183 15 51 15Z" stroke="#17B978" stroke-width="4"/>
<path d="M25 11V19" stroke="#17B978" stroke-width="4" stroke-linecap="round"/>
<path d="M49 11V19" stroke="#17B978" stroke-width="4" stroke-linecap="round"/>
<path d="M31 46C34.866 46 38 42.866 38 39C38 35.134 34.866 32 31 32C27.134 32 24 35.134 24 39C24 42.866 27.134 46 31 46Z" stroke="#17B978" stroke-width="3"/>
<path d="M43 46C46.866 46 50 42.866 50 39C50 35.134 46.866 32 43 32C39.134 32 36 35.134 36 39C36 42.866 39.134 46 43 46Z" stroke="#17B978" stroke-width="3"/>
<path d="M37 42.5C38.933 42.5 40.5 40.933 40.5 39C40.5 37.067 38.933 35.5 37 35.5C35.067 35.5 33.5 37.067 33.5 39C33.5 40.933 35.067 42.5 37 42.5Z" fill="#00B8D9"/>
</svg>
